<svg width="45" height="71" viewBox="0 0 45 71" fill="none" xmlns="http://www.w3.org/2000/svg">
<path d="M8.28467 70V62.1797H10.4922C11.1725 62.1797 11.7741 62.3301 12.2969 62.6309C12.8197 62.9316 13.2225 63.3595 13.5054 63.9146C13.7918 64.4696 13.9368 65.1069 13.9404 65.8267V66.3262C13.9404 67.0638 13.7972 67.7101 13.5107 68.2651C13.2279 68.8201 12.8215 69.2463 12.2915 69.5435C11.7651 69.8407 11.151 69.9928 10.4492 70H8.28467ZM9.31592 63.0283V69.1567H10.4009C11.1958 69.1567 11.8135 68.9097 12.2539 68.4155C12.6979 67.9214 12.9199 67.2178 12.9199 66.3047V65.8481C12.9199 64.9601 12.7104 64.2708 12.2915 63.7803C11.8761 63.2861 11.2853 63.0355 10.519 63.0283H9.31592ZM15.0845 67.0405C15.0845 66.4712 15.1955 65.9591 15.4175 65.5044C15.6431 65.0496 15.9546 64.6987 16.3521 64.4517C16.7531 64.2046 17.2096 64.0811 17.7217 64.0811C18.513 64.0811 19.1522 64.355 19.6392 64.9028C20.1297 65.4507 20.375 66.1794 20.375 67.0889V67.1587C20.375 67.7244 20.2658 68.2329 20.0474 68.6841C19.8325 69.1317 19.5228 69.4808 19.1182 69.7314C18.7171 69.9821 18.2552 70.1074 17.7324 70.1074C16.9447 70.1074 16.3055 69.8335 15.8149 69.2856C15.328 68.7378 15.0845 68.0127 15.0845 67.1104V67.0405ZM16.0835 67.1587C16.0835 67.8032 16.2321 68.3206 16.5293 68.7109C16.8301 69.1012 17.2311 69.2964 17.7324 69.2964C18.2373 69.2964 18.6383 69.0994 18.9355 68.7056C19.2327 68.3081 19.3813 67.7531 19.3813 67.0405C19.3813 66.4032 19.2292 65.8875 18.9248 65.4937C18.624 65.0962 18.223 64.8975 17.7217 64.8975C17.2311 64.8975 16.8354 65.0926 16.5347 65.4829C16.2339 65.8732 16.0835 66.4318 16.0835 67.1587ZM25.209 69.4253C24.8223 69.88 24.2547 70.1074 23.5063 70.1074C22.8869 70.1074 22.4142 69.9284 22.0884 69.5703C21.7661 69.2087 21.6032 68.6751 21.5996 67.9697V64.1885H22.5933V67.9429C22.5933 68.8237 22.9513 69.2642 23.6675 69.2642C24.4266 69.2642 24.9315 68.9813 25.1821 68.4155V64.1885H26.1758V70H25.2305L25.209 69.4253ZM32.6104 67.1587C32.6104 68.0467 32.4062 68.7611 31.998 69.3018C31.5898 69.8389 31.042 70.1074 30.3545 70.1074C29.6204 70.1074 29.0529 69.8478 28.6519 69.3286L28.6035 70H27.6904V61.75H28.6841V64.8276C29.0851 64.3299 29.6383 64.0811 30.3438 64.0811C31.0492 64.0811 31.6024 64.3478 32.0034 64.8813C32.408 65.4149 32.6104 66.1453 32.6104 67.0728V67.1587ZM31.6167 67.0459C31.6167 66.3691 31.486 65.8464 31.2246 65.4775C30.9632 65.1087 30.5872 64.9243 30.0967 64.9243C29.4414 64.9243 28.9705 65.2287 28.6841 65.8374V68.3511C28.9884 68.9598 29.4629 69.2642 30.1074 69.2642C30.5837 69.2642 30.9543 69.0798 31.2192 68.7109C31.4842 68.3421 31.6167 67.7871 31.6167 67.0459ZM34.9468 70H33.9531V61.75H34.9468V70ZM38.9536 70.1074C38.1659 70.1074 37.5249 69.8496 37.0308 69.334C36.5366 68.8148 36.2896 68.1219 36.2896 67.2554V67.0728C36.2896 66.4963 36.3988 65.9824 36.6172 65.5312C36.8392 65.0765 37.1471 64.722 37.541 64.4678C37.9385 64.21 38.3682 64.0811 38.8301 64.0811C39.5856 64.0811 40.1729 64.3299 40.5918 64.8276C41.0107 65.3254 41.2202 66.0379 41.2202 66.9653V67.3789H37.2832C37.2975 67.9518 37.464 68.4155 37.7827 68.77C38.105 69.1209 38.5132 69.2964 39.0073 69.2964C39.3582 69.2964 39.6554 69.2248 39.8989 69.0815C40.1424 68.9383 40.3555 68.7485 40.5381 68.5122L41.145 68.9849C40.658 69.7332 39.9276 70.1074 38.9536 70.1074ZM38.8301 64.8975C38.429 64.8975 38.0924 65.0443 37.8203 65.3379C37.5482 65.6279 37.3799 66.0361 37.3154 66.5625H40.2266V66.4873C40.1979 65.9824 40.0618 65.5921 39.8184 65.3164C39.5749 65.0371 39.2454 64.8975 38.8301 64.8975Z" fill="white"/>
<path d="M30 0H24V22H30V0Z" fill="white"/>
<path d="M24 26H10.5L3 50.5H17L24 26Z" stroke="white" stroke-width="3"/>
<path d="M43 26H29.5L22 50.5H36L43 26Z" stroke="white" stroke-width="3"/>
<circle cx="27" cy="6" r="1" fill="#78CAF0"/>
<circle cx="27" cy="11" r="1" fill="#78CAF0"/>
</svg>
