<!-- Generator: Adobe Illustrator 18.0.0, SVG Export Plug-In  -->
<svg width="35" height="69" viewBox="0 0 35 69" fill="none" xmlns="http://www.w3.org/2000/svg">
<path d="M26 0H20V22H26V0Z" fill="white"/>
<path d="M30 25H16.5L9 49.5H23L30 25Z" stroke="white" stroke-width="3"/>
<path d="M3.94336 63.0142C3.05892 62.7599 2.41439 62.4484 2.00977 62.0796C1.60872 61.7072 1.4082 61.2489 1.4082 60.7046C1.4082 60.0887 1.65348 59.5802 2.14404 59.1792C2.63818 58.7746 3.27913 58.5723 4.06689 58.5723C4.604 58.5723 5.08203 58.6761 5.50098 58.8838C5.9235 59.0915 6.24935 59.3779 6.47852 59.7432C6.71126 60.1084 6.82764 60.5076 6.82764 60.9409H5.79102C5.79102 60.4683 5.64062 60.0977 5.33984 59.8291C5.03906 59.557 4.61475 59.4209 4.06689 59.4209C3.55843 59.4209 3.16097 59.5337 2.87451 59.7593C2.59163 59.9813 2.4502 60.291 2.4502 60.6885C2.4502 61.0072 2.58447 61.2775 2.85303 61.4995C3.12516 61.7179 3.58529 61.9185 4.2334 62.1011C4.88509 62.2837 5.39355 62.486 5.75879 62.708C6.1276 62.9264 6.39974 63.1825 6.5752 63.4761C6.75423 63.7697 6.84375 64.1152 6.84375 64.5127C6.84375 65.1465 6.59668 65.6549 6.10254 66.0381C5.6084 66.4176 4.94775 66.6074 4.12061 66.6074C3.5835 66.6074 3.08219 66.5054 2.6167 66.3013C2.1512 66.0936 1.79134 65.8107 1.53711 65.4526C1.28646 65.0946 1.16113 64.6882 1.16113 64.2334H2.19775C2.19775 64.7061 2.37142 65.0802 2.71875 65.356C3.06966 65.6281 3.53695 65.7642 4.12061 65.7642C4.66488 65.7642 5.08203 65.6532 5.37207 65.4312C5.66211 65.2091 5.80713 64.9066 5.80713 64.5234C5.80713 64.1403 5.67285 63.8449 5.4043 63.6372C5.13574 63.4259 4.64876 63.2183 3.94336 63.0142ZM9.09424 66.5H8.10059V60.6885H9.09424V66.5ZM8.02002 59.147C8.02002 58.9858 8.06836 58.8498 8.16504 58.7388C8.2653 58.6278 8.41211 58.5723 8.60547 58.5723C8.79883 58.5723 8.94564 58.6278 9.0459 58.7388C9.14616 58.8498 9.19629 58.9858 9.19629 59.147C9.19629 59.3081 9.14616 59.4424 9.0459 59.5498C8.94564 59.6572 8.79883 59.7109 8.60547 59.7109C8.41211 59.7109 8.2653 59.6572 8.16504 59.5498C8.06836 59.4424 8.02002 59.3081 8.02002 59.147ZM11.624 60.6885L11.6509 61.333C12.077 60.8317 12.6517 60.5811 13.375 60.5811C14.1878 60.5811 14.741 60.8926 15.0347 61.5156C15.228 61.2363 15.4787 61.0107 15.7866 60.8389C16.0981 60.667 16.4652 60.5811 16.8877 60.5811C18.1624 60.5811 18.8105 61.256 18.832 62.606V66.5H17.8384V62.665C17.8384 62.2497 17.7435 61.9399 17.5537 61.7358C17.3639 61.5282 17.0452 61.4243 16.5977 61.4243C16.2288 61.4243 15.9227 61.5353 15.6792 61.7573C15.4357 61.9757 15.2943 62.2712 15.2549 62.6436V66.5H14.2559V62.6919C14.2559 61.8468 13.8423 61.4243 13.0151 61.4243C12.3634 61.4243 11.9176 61.7018 11.6777 62.2568V66.5H10.6841V60.6885H11.624ZM25.2451 63.6587C25.2451 64.5431 25.0428 65.2557 24.6382 65.7964C24.2336 66.3371 23.6857 66.6074 22.9946 66.6074C22.2892 66.6074 21.7342 66.3836 21.3296 65.936V68.7344H20.3359V60.6885H21.2437L21.292 61.333C21.6966 60.8317 22.2588 60.5811 22.9785 60.5811C23.6768 60.5811 24.2282 60.8442 24.6328 61.3706C25.041 61.897 25.2451 62.6292 25.2451 63.5674V63.6587ZM24.2515 63.5459C24.2515 62.8906 24.1118 62.3732 23.8325 61.9937C23.5532 61.6141 23.1701 61.4243 22.6831 61.4243C22.0815 61.4243 21.6304 61.6911 21.3296 62.2246V65.0015C21.6268 65.5314 22.0815 65.7964 22.6938 65.7964C23.1701 65.7964 23.5479 65.6084 23.8271 65.2324C24.11 64.8529 24.2515 64.2907 24.2515 63.5459ZM27.5923 66.5H26.5986V58.25H27.5923V66.5ZM31.5991 66.6074C30.8114 66.6074 30.1704 66.3496 29.6763 65.834C29.1821 65.3148 28.9351 64.6219 28.9351 63.7554V63.5728C28.9351 62.9963 29.0443 62.4824 29.2627 62.0312C29.4847 61.5765 29.7926 61.222 30.1865 60.9678C30.584 60.71 31.0137 60.5811 31.4756 60.5811C32.2311 60.5811 32.8184 60.8299 33.2373 61.3276C33.6562 61.8254 33.8657 62.5379 33.8657 63.4653V63.8789H29.9287C29.943 64.4518 30.1095 64.9155 30.4282 65.27C30.7505 65.6209 31.1587 65.7964 31.6528 65.7964C32.0037 65.7964 32.3009 65.7248 32.5444 65.5815C32.7879 65.4383 33.001 65.2485 33.1836 65.0122L33.7905 65.4849C33.3035 66.2332 32.5731 66.6074 31.5991 66.6074ZM31.4756 61.3975C31.0745 61.3975 30.738 61.5443 30.4658 61.8379C30.1937 62.1279 30.0254 62.5361 29.9609 63.0625H32.8721V62.9873C32.8434 62.4824 32.7074 62.0921 32.4639 61.8164C32.2204 61.5371 31.891 61.3975 31.4756 61.3975Z" fill="white"/>
<circle cx="23" cy="6" r="1" fill="#78CAF0"/>
<circle cx="23" cy="11" r="1" fill="#78CAF0"/>
</svg>